<mxfile host="app.diagrams.net" agent="Mozilla/5.0 (Windows NT 10.0; Win64; x64) AppleWebKit/537.36 (KHTML, like Gecko) Chrome/131.0.0.0 Safari/537.36 Edg/131.0.0.0" version="25.0.3">
  <diagram name="第 1 页" id="QtLcYjfqMq8RCf72X1yj">
    <mxGraphModel dx="1336" dy="871" grid="1" gridSize="10" guides="1" tooltips="1" connect="1" arrows="1" fold="1" page="1" pageScale="1" pageWidth="827" pageHeight="1169" math="0" shadow="0">
      <root>
        <mxCell id="0" />
        <mxCell id="1" parent="0" />
        <mxCell id="hBJYv0mAiT1ot96n30vC-28" value="品牌/销售" style="shape=umlLifeline;perimeter=lifelinePerimeter;whiteSpace=wrap;html=1;container=1;dropTarget=0;collapsible=0;recursiveResize=0;outlineConnect=0;portConstraint=eastwest;newEdgeStyle={&quot;curved&quot;:0,&quot;rounded&quot;:0};movable=0;resizable=0;rotatable=0;deletable=0;editable=0;locked=1;connectable=0;fillColor=#ffe6cc;strokeColor=#d79b00;" vertex="1" parent="1">
          <mxGeometry x="64" y="100" width="100" height="530" as="geometry" />
        </mxCell>
        <mxCell id="hBJYv0mAiT1ot96n30vC-29" value="数据湖" style="shape=umlLifeline;perimeter=lifelinePerimeter;whiteSpace=wrap;html=1;container=1;dropTarget=0;collapsible=0;recursiveResize=0;outlineConnect=0;portConstraint=eastwest;newEdgeStyle={&quot;curved&quot;:0,&quot;rounded&quot;:0};movable=0;resizable=0;rotatable=0;deletable=0;editable=0;locked=1;connectable=0;fillColor=#dae8fc;strokeColor=#6c8ebf;" vertex="1" parent="1">
          <mxGeometry x="740" y="100" width="100" height="530" as="geometry" />
        </mxCell>
        <mxCell id="hBJYv0mAiT1ot96n30vC-30" value="激励中心" style="shape=umlLifeline;perimeter=lifelinePerimeter;whiteSpace=wrap;html=1;container=1;dropTarget=0;collapsible=0;recursiveResize=0;outlineConnect=0;portConstraint=eastwest;newEdgeStyle={&quot;curved&quot;:0,&quot;rounded&quot;:0};movable=0;resizable=0;rotatable=0;deletable=0;editable=0;locked=1;connectable=0;fillColor=#fff2cc;strokeColor=#d6b656;" vertex="1" parent="1">
          <mxGeometry x="580" y="100" width="100" height="530" as="geometry" />
        </mxCell>
        <mxCell id="hBJYv0mAiT1ot96n30vC-31" value="任务中心" style="shape=umlLifeline;perimeter=lifelinePerimeter;whiteSpace=wrap;html=1;container=1;dropTarget=0;collapsible=0;recursiveResize=0;outlineConnect=0;portConstraint=eastwest;newEdgeStyle={&quot;curved&quot;:0,&quot;rounded&quot;:0};movable=0;resizable=0;rotatable=0;deletable=0;editable=0;locked=1;connectable=0;fillColor=#d5e8d4;strokeColor=#82b366;" vertex="1" parent="1">
          <mxGeometry x="247" y="100" width="100" height="530" as="geometry" />
        </mxCell>
        <mxCell id="hBJYv0mAiT1ot96n30vC-43" value="" style="edgeStyle=orthogonalEdgeStyle;rounded=0;orthogonalLoop=1;jettySize=auto;html=1;curved=0;" edge="1" parent="1">
          <mxGeometry relative="1" as="geometry">
            <mxPoint x="119" y="200" as="sourcePoint" />
            <mxPoint x="292" y="200" as="targetPoint" />
          </mxGeometry>
        </mxCell>
        <mxCell id="hBJYv0mAiT1ot96n30vC-44" value="1、L5 任务导入" style="edgeLabel;html=1;align=center;verticalAlign=middle;resizable=0;points=[];" vertex="1" connectable="0" parent="hBJYv0mAiT1ot96n30vC-43">
          <mxGeometry x="-0.1929" y="1" relative="1" as="geometry">
            <mxPoint x="15" y="-10" as="offset" />
          </mxGeometry>
        </mxCell>
        <mxCell id="hBJYv0mAiT1ot96n30vC-39" value="" style="html=1;points=[[0,0,0,0,5],[0,1,0,0,-5],[1,0,0,0,5],[1,1,0,0,-5]];perimeter=orthogonalPerimeter;outlineConnect=0;targetShapes=umlLifeline;portConstraint=eastwest;newEdgeStyle={&quot;curved&quot;:0,&quot;rounded&quot;:0};" vertex="1" parent="1">
          <mxGeometry x="109" y="190" width="10" height="80" as="geometry" />
        </mxCell>
        <mxCell id="hBJYv0mAiT1ot96n30vC-46" value="" style="edgeStyle=orthogonalEdgeStyle;rounded=0;orthogonalLoop=1;jettySize=auto;html=1;curved=0;" edge="1" parent="1" source="hBJYv0mAiT1ot96n30vC-42">
          <mxGeometry relative="1" as="geometry">
            <mxPoint x="438" y="207" as="sourcePoint" />
            <mxPoint x="625" y="207" as="targetPoint" />
            <Array as="points">
              <mxPoint x="464" y="207" />
              <mxPoint x="625" y="208" />
            </Array>
          </mxGeometry>
        </mxCell>
        <mxCell id="hBJYv0mAiT1ot96n30vC-47" value="2、L5 任务-激励计算" style="edgeLabel;html=1;align=center;verticalAlign=middle;resizable=0;points=[];" vertex="1" connectable="0" parent="hBJYv0mAiT1ot96n30vC-46">
          <mxGeometry x="-0.1948" y="1" relative="1" as="geometry">
            <mxPoint x="7" y="-9" as="offset" />
          </mxGeometry>
        </mxCell>
        <mxCell id="hBJYv0mAiT1ot96n30vC-42" value="" style="html=1;points=[[0,0,0,0,5],[0,1,0,0,-5],[1,0,0,0,5],[1,1,0,0,-5]];perimeter=orthogonalPerimeter;outlineConnect=0;targetShapes=umlLifeline;portConstraint=eastwest;newEdgeStyle={&quot;curved&quot;:0,&quot;rounded&quot;:0};" vertex="1" parent="1">
          <mxGeometry x="292" y="190" width="10" height="80" as="geometry" />
        </mxCell>
        <mxCell id="hBJYv0mAiT1ot96n30vC-49" value="" style="edgeStyle=orthogonalEdgeStyle;rounded=0;orthogonalLoop=1;jettySize=auto;html=1;curved=0;" edge="1" parent="1">
          <mxGeometry relative="1" as="geometry">
            <mxPoint x="635" y="217" as="sourcePoint" />
            <mxPoint x="785" y="217" as="targetPoint" />
          </mxGeometry>
        </mxCell>
        <mxCell id="hBJYv0mAiT1ot96n30vC-50" value="3、激励实时计算" style="edgeLabel;html=1;align=center;verticalAlign=middle;resizable=0;points=[];" vertex="1" connectable="0" parent="hBJYv0mAiT1ot96n30vC-49">
          <mxGeometry x="-0.1536" y="1" relative="1" as="geometry">
            <mxPoint x="12" y="-8" as="offset" />
          </mxGeometry>
        </mxCell>
        <mxCell id="hBJYv0mAiT1ot96n30vC-55" value="" style="edgeStyle=orthogonalEdgeStyle;rounded=0;orthogonalLoop=1;jettySize=auto;html=1;curved=0;" edge="1" parent="1" target="hBJYv0mAiT1ot96n30vC-42">
          <mxGeometry relative="1" as="geometry">
            <mxPoint x="625" y="237" as="sourcePoint" />
            <mxPoint x="438" y="237" as="targetPoint" />
            <Array as="points">
              <mxPoint x="464" y="238" />
              <mxPoint x="464" y="230" />
            </Array>
          </mxGeometry>
        </mxCell>
        <mxCell id="hBJYv0mAiT1ot96n30vC-56" value="5、返回L5激励目标结果" style="edgeLabel;html=1;align=center;verticalAlign=middle;resizable=0;points=[];" vertex="1" connectable="0" parent="hBJYv0mAiT1ot96n30vC-55">
          <mxGeometry x="0.2298" y="-2" relative="1" as="geometry">
            <mxPoint x="16" y="12" as="offset" />
          </mxGeometry>
        </mxCell>
        <mxCell id="hBJYv0mAiT1ot96n30vC-45" value="" style="html=1;points=[[0,0,0,0,5],[0,1,0,0,-5],[1,0,0,0,5],[1,1,0,0,-5]];perimeter=orthogonalPerimeter;outlineConnect=0;targetShapes=umlLifeline;portConstraint=eastwest;newEdgeStyle={&quot;curved&quot;:0,&quot;rounded&quot;:0};" vertex="1" parent="1">
          <mxGeometry x="625" y="190" width="10" height="80" as="geometry" />
        </mxCell>
        <mxCell id="hBJYv0mAiT1ot96n30vC-52" value="" style="edgeStyle=orthogonalEdgeStyle;rounded=0;orthogonalLoop=1;jettySize=auto;html=1;curved=0;" edge="1" parent="1">
          <mxGeometry relative="1" as="geometry">
            <mxPoint x="785" y="232.02857142857135" as="sourcePoint" />
            <mxPoint x="635" y="232" as="targetPoint" />
          </mxGeometry>
        </mxCell>
        <mxCell id="hBJYv0mAiT1ot96n30vC-53" value="4、返回激励结果" style="edgeLabel;html=1;align=center;verticalAlign=middle;resizable=0;points=[];" vertex="1" connectable="0" parent="hBJYv0mAiT1ot96n30vC-52">
          <mxGeometry x="0.2145" relative="1" as="geometry">
            <mxPoint x="16" y="8" as="offset" />
          </mxGeometry>
        </mxCell>
        <mxCell id="hBJYv0mAiT1ot96n30vC-48" value="" style="html=1;points=[[0,0,0,0,5],[0,1,0,0,-5],[1,0,0,0,5],[1,1,0,0,-5]];perimeter=orthogonalPerimeter;outlineConnect=0;targetShapes=umlLifeline;portConstraint=eastwest;newEdgeStyle={&quot;curved&quot;:0,&quot;rounded&quot;:0};" vertex="1" parent="1">
          <mxGeometry x="785" y="190" width="10" height="80" as="geometry" />
        </mxCell>
        <mxCell id="hBJYv0mAiT1ot96n30vC-57" value="DSFA" style="shape=umlLifeline;perimeter=lifelinePerimeter;whiteSpace=wrap;html=1;container=1;dropTarget=0;collapsible=0;recursiveResize=0;outlineConnect=0;portConstraint=eastwest;newEdgeStyle={&quot;curved&quot;:0,&quot;rounded&quot;:0};movable=0;resizable=0;rotatable=0;deletable=0;editable=0;locked=1;connectable=0;fillColor=#d5e8d4;strokeColor=#82b366;" vertex="1" parent="1">
          <mxGeometry x="414" y="100" width="100" height="530" as="geometry" />
        </mxCell>
      </root>
    </mxGraphModel>
  </diagram>
</mxfile>
